<svg
   xmlns:dc="http://purl.org/dc/elements/1.1/"
   xmlns:cc="http://creativecommons.org/ns#"
   xmlns:rdf="http://www.w3.org/1999/02/22-rdf-syntax-ns#"
   xmlns:svg="http://www.w3.org/2000/svg"
   xmlns="http://www.w3.org/2000/svg"
   id="svg13"
   version="1.1"
   viewBox="0 0  380 280">
  <metadata
     id="metadata19">
    <rdf:RDF>
      <cc:Work
         rdf:about="">
        <dc:format>image/svg+xml</dc:format>
        <dc:type
           rdf:resource="http://purl.org/dc/dcmitype/StillImage" />
      </cc:Work>
    </rdf:RDF>
  </metadata>
  <defs
     id="defs17" />
  <g
     transform="translate(109,148.25)"
     id="id__11456827">
    <g
       id="text2"
       style="font-size:40px;font-family:Dream-ZongYiGBT;fill:#6e5873"
       aria-label="奇">
      <path
         id="path21"
         style="font-size:40px;font-family:Dream-ZongYiGBT;fill:#6e5873"
         d="m 8.27,-5.465 q 2.68,-0.08 5.12,-1.16 2.44,-1.08 5.04,-1.88 0.48,-0.16 1.12,0 4.16,2.56 9.04,2.88 h 7.88 q 0.32,0.04 0.4,-0.32 v -3.44 q -0.08,-0.48 -0.4,-0.52 h -4.52 q -1.44,0 -2.96,-0.48 l -3.6,-1.08 q -0.48,-0.36 0,-0.64 h 11.08 q 0.32,-0.12 0.4,-0.48 v -3.52 q -0.08,-0.36 -0.4,-0.44 h -14.2 q -0.32,0.04 -0.4,-0.16 v -0.96 q -0.08,-0.4 -0.48,-0.48 h -5.08 q -0.28,0.04 -0.36,0.32 v 0.96 q -0.04,0.28 -0.4,0.32 H 1.31 q -0.56,0.08 -0.44,0.44 v 3.52 q 0.04,0.36 0.44,0.48 h 11.28 q 0.8,0.2 0.16,0.64 l -4,1.24 q -0.8,0.2 -1.56,0.16 H 1.31 q -0.4,0.04 -0.44,0.28 v 3.92 q 0.04,0.4 0.32,0.4 h 7.08 z m -6.32,21.52 q 0.04,0.32 0.32,0.4 h 21.4 q 3.6,0 4.08,-3.32 V 2.415 q -0.08,-0.32 -0.48,-0.4 h -25 q -0.28,0.08 -0.32,0.4 v 13.64 z m 27.88,-3.64 q -0.12,1 -1,1.12 h -0.64 q -0.28,0.04 -0.28,0.44 v 3.48 q -0.04,0.32 0.52,0.4 h 2.28 q 4.44,-0.36 4.6,-4.8 V 0.935 q 0.04,-0.4 0.32,-0.48 h 0.84 q 0.32,-0.04 0.4,-0.44 v -3.44 q -0.08,-0.4 -0.4,-0.48 H 1.19 q -0.28,0.04 -0.32,0.32 v 3.8 q 0.04,0.24 0.32,0.24 h 28.28 q 0.28,0.08 0.36,0.4 v 11.56 z M 7.35,7.095 q 0.04,-0.64 0.68,-0.52 h 14.08 q 0.32,0.08 0.4,0.36 v 4.08 q -0.04,0.96 -1.12,1 H 7.83 q -0.44,-0.04 -0.48,-0.44 v -4.48 z" />
    </g>
    <g
       id="text4"
       style="font-size:40px;font-family:Dream-ZongYiGBT;fill:#6e5873"
       aria-label="遇">
      <path
         id="path24"
         style="font-size:40px;font-family:Dream-ZongYiGBT;fill:#6e5873"
         d="m 48.93,-17.425 q -0.04,-0.36 -0.32,-0.4 h -4.6 q -0.28,0.04 -0.32,0.4 v 5.32 q 0.04,0.28 0.32,0.32 h 4.76 q 0.2,-0.04 0.16,-0.32 v -5.32 z m 18.2,23.12 q 0.36,-0.52 0.92,-0.52 h 4.76 q 0.32,0.12 0.32,0.52 v 2.68 q 0,0.32 -0.32,0.44 h -0.6 q -0.28,0.08 -0.32,0.4 v 3.04 q 0.04,0.28 0.32,0.32 h 2.96 q 1.6,-0.04 2.36,-1.28 0.76,-1.28 0.76,-3.08 v -7.36 q 0,-0.28 -0.24,-0.32 H 67.61 q -0.36,-0.12 -0.48,-0.44 v -0.72 q 0.12,-0.36 0.48,-0.48 h 6.8 q 3.68,0.16 3.88,-3.2 v -12.96 q -0.04,-0.32 -0.32,-0.4 H 51.33 q -0.24,0.08 -0.28,0.4 v 15.92 q 0.04,0.24 0.28,0.24 h 9.64 q 0.24,0.12 0.28,0.48 v 0.72 q -0.04,0.32 -0.28,0.44 h -9.8 q -0.24,0.04 -0.28,0.32 v 11.56 q 0.04,0.28 0.28,0.32 h 4.4 q 0.36,-0.04 0.4,-0.32 v -6.88 q 0.04,-0.32 0.28,-0.36 h 4.48 q 0.6,0.04 0.52,0.6 v 1.8 q -0.04,0.32 -0.52,0.4 h -2.76 q -0.4,0.08 -0.44,0.48 v 2.8 q -0.08,0.68 0.52,0.68 h 9.72 q 3.56,0.2 3.8,-3.12 v -2.08 q -0.12,-0.4 -0.48,-0.48 h -2.24 q -0.32,0.08 -0.4,0.48 v 0.92 q -0.04,0.28 -0.4,0.32 h -0.52 q -0.4,-0.12 -0.4,-0.48 v -1.8 z m -11.08,-18.88 q 0.04,-0.28 0.28,-0.32 h 4.64 q 0.28,0.12 0.28,0.44 v 0.96 q -0.04,0.28 -0.28,0.32 h -4.64 q -0.24,-0.04 -0.28,-0.32 v -1.08 z m 16.76,1.16 q -0.04,0.32 -0.28,0.4 h -4.76 q -0.52,0.08 -0.64,-0.24 v -1.12 q 0.16,-0.32 0.56,-0.36 h 4.76 q 0.32,0.08 0.36,0.36 v 0.96 z m -24.68,29.56 q 1.4,1.16 3.28,1.16 h 26.56 q 0.28,0 0.32,-0.2 v -3.92 q -0.12,-0.32 -0.48,-0.28 h -24.6 q -1.36,0 -2.8,-0.68 -1.4,-0.68 -1.48,-1.8 v -19.64 q -0.04,-0.32 -0.32,-0.36 h -5.64 q -0.36,0.04 -0.36,0.36 v 3.6 q 0,0.44 0.36,0.48 h 0.72 q 0.28,0.08 0.32,0.4 v 17 q -0.04,0.56 -0.56,0.64 h -0.4 q -0.52,0.04 -0.6,0.52 v 3.6 q 0.04,0.24 0.32,0.28 h 2.08 q 1.64,-0.12 2.84,-1.16 0.12,-0.12 0.44,0 z m 13.12,-23.32 q -0.04,0.28 -0.28,0.32 h -4.56 q -0.32,-0.04 -0.36,-0.32 v -1 q 0.04,-0.36 0.52,-0.4 h 4.16 q 0.4,0 0.52,0.32 v 1.08 z m 5.88,-1.08 q -0.04,-0.28 0.32,-0.32 h 5 q 0.32,0.04 0.36,0.32 v 1.08 q -0.04,0.28 -0.28,0.32 h -5.08 q -0.36,-0.04 -0.32,-0.32 v -1.08 z" />
    </g>
    <g
       id="text6"
       style="font-size:40px;font-family:Dream-ZongYiGBT;fill:#6e5873"
       aria-label="科">
      <path
         id="path27"
         style="font-size:40px;font-family:Dream-ZongYiGBT;fill:#6e5873"
         d="m 102.83,-16.105 q -0.24,0.2 -0.16,0.72 l 1.28,8.12 q 0.32,1.68 1.88,1.8 h 5.6 q 0.32,-0.04 0.4,-0.48 v -3.6 q -0.04,-0.32 -0.32,-0.36 h -1.64 q -0.72,-0.12 -0.84,-0.88 l -0.72,-4.68 q 0,-0.48 -0.32,-0.64 h -5.16 z m -6.72,11.4 q 0,-0.24 0.4,-0.28 h 5.72 q 0.28,-0.04 0.32,-0.32 v -3.76 q -0.04,-0.4 -0.32,-0.48 h -5.72 q -0.4,-0.08 -0.4,-0.36 v -1.56 q -0.04,-0.36 0.4,-0.48 h 1.72 q 3.88,0.04 4.16,-3.6 v -1.72 q -0.12,-0.36 -0.48,-0.4 h -4.68 q -0.32,0.04 -0.4,0.4 v 0.84 q -0.04,0.28 -0.32,0.32 H 84.95 q -0.28,0.08 -0.32,0.4 v 3.6 q 0.04,0.28 0.32,0.32 h 5.8 q 0.24,0.04 0.28,0.32 v 1.56 q -0.04,0.28 -0.28,0.36 h -5.88 q -0.28,0.04 -0.32,0.32 v 3.92 q 0,0.28 0.24,0.32 h 5.96 q 0.24,0.04 0.28,0.28 v 22.32 q 0.04,0.32 0.32,0.4 h 4.4 q 0.28,-0.08 0.36,-0.4 v -22.32 z m 13.36,6.36 q -0.32,-0.04 -0.44,-0.48 l -0.88,-4.52 q -0.04,-0.32 -0.32,-0.4 h -4.76 q -0.32,0.08 -0.24,0.6 l 0.96,6.6 q 0.48,2.6 3.52,2.48 h 3.96 q 0.44,0 0.4,-0.48 v -3.44 q -0.04,-0.32 -0.32,-0.36 h -1.88 z m -19.12,-5.08 q -0.04,-0.28 -0.32,-0.32 h -3.84 q -0.28,0.08 -0.28,0.4 l -0.48,15.08 q 0.04,0.36 -0.16,0.6 l -0.64,0.56 q -0.12,0.16 -0.08,0.4 v 3.76 q 0,0.36 0.24,0.4 h 1.04 q 3.88,-0.04 3.96,-3.92 l 0.56,-16.96 z m 6.88,18 q 0.28,2.52 2.64,2.72 h 2.04 q 0.36,-0.12 0.48,-0.52 v -4.04 q -0.04,-0.28 -0.32,-0.32 h -0.48 q -0.36,-0.16 -0.32,-0.56 l -0.36,-15.04 q -0.04,-0.52 -0.32,-0.56 h -3.52 q -0.28,0.04 -0.32,0.32 l 0.48,18 z m 5.6,-0.44 q 0.04,0.24 0.32,0.28 l 9,-0.88 q 0.44,0.08 0.4,0.44 v 3.88 q 0.04,0.28 0.28,0.32 h 4.56 q 0.32,-0.04 0.36,-0.32 v -4.4 q 0.04,-0.32 0.32,-0.4 l 1.48,-0.24 q 0.28,-0.12 0.32,-0.48 v -4.36 q -0.04,-0.24 -0.32,-0.24 l -1.56,0.24 q -0.24,-0.04 -0.24,-0.32 v -25.16 q -0.04,-0.28 -0.36,-0.32 h -4.4 q -0.28,0.04 -0.32,0.32 v 25.48 q -0.12,0.4 -0.52,0.4 l -9,0.84 q -0.28,0.04 -0.32,0.56 v 4.36 z" />
    </g>
    <path
       style="fill:#e99187"
       id="path8"
       d="m 122.5,21.75 v -43.5 l 41.5,-7 v 57.5 z" />
    <g
       id="text10"
       style="font-size:40px;font-family:Dream-ZongYiGBT;fill:#ffffff"
       aria-label="技">
      <path
         id="path30"
         style="font-size:40px;font-family:Dream-ZongYiGBT;fill:#ffffff"
         d="m 144.33,17.695 q 2.64,0.12 4.24,-1.88 l 2.12,-2.84 q 0.28,-0.36 0.6,0 l 2.52,3.24 q 1.12,1.36 2.64,1.48 h 4.44 q 0.28,-0.04 0.32,-0.32 v -3.56 q -0.04,-0.28 -0.32,-0.28 h -1.4 q -1,-0.04 -1.8,-1.04 l -3.28,-4.12 q -0.12,-0.28 0,-0.56 l 6.48,-9 q 0.28,-0.4 0.32,-0.84 v -3.76 q -0.04,-0.28 -0.32,-0.32 h -7.24 q -0.28,-0.04 -0.32,-0.32 v -4.12 q 0.04,-0.28 0.32,-0.32 h 7.24 q 0.28,-0.04 0.32,-0.32 v -3.6 q -0.04,-0.24 -0.32,-0.28 h -7.24 q -0.28,0 -0.32,-0.4 v -2.44 q -0.04,-0.32 -0.32,-0.36 h -4.6 q -0.28,0.04 -0.32,0.36 v 2.44 q -0.04,0.4 -0.32,0.4 h -5.84 q -0.28,0.04 -0.32,0.28 v 3.6 q 0.04,0.28 0.32,0.32 h 5.92 q 0.24,0.04 0.24,0.32 v 4.12 q 0,0.28 -0.24,0.32 h -6.24 q -0.24,0.04 -0.24,0.32 v 3.68 q 0,0.24 0.24,0.24 h 13.2 q 0.12,0.12 0,0.32 l -3.6,4.92 q -0.32,0.28 -0.68,0 l -2.44,-3 q -0.2,-0.24 -0.64,-0.28 h -5.36 q -0.32,0.12 -0.16,0.44 l 5.4,7.2 q 0.2,0.4 0,0.84 l -2.68,3.6 q -0.56,1.08 -1.48,1.2 h -2.64 q -0.28,0.04 -0.32,0.28 v 3.72 q 0.04,0.28 0.32,0.32 h 3.8 z m -5.76,-27.84 q 0.08,-0.36 0.4,-0.4 h 1.4 q 0.28,-0.04 0.32,-0.32 v -3.92 q -0.04,-0.24 -0.32,-0.28 h -1.4 q -0.32,0 -0.4,-0.4 v -2.04 q -0.04,-0.32 -0.32,-0.4 h -4.44 q -0.4,0 -0.4,0.24 v 2.2 q 0,0.4 -0.24,0.4 h -7.36 q -0.24,0.04 -0.28,0.28 v 4 q 0,0.24 0.24,0.24 h 7.32 q 0.28,0.04 0.32,0.4 v 1.4 q 0.04,0.64 -0.24,1.4 l -6.24,12.56 q -0.28,0.4 -0.64,0.56 l -1,0.4 q -0.32,0.24 -0.24,0.56 v 3.72 q 0.04,0.28 0.32,0.32 h 2.04 q 1.92,0.04 2.88,-1.72 l 2.72,-5.4 q 0.24,-0.2 0.4,0 v 9 q -0.08,0.68 -0.64,0.72 h -6.32 q -0.28,0.04 -0.32,0.28 v 3.72 q 0.04,0.28 0.32,0.32 h 8.6 q 3.52,-0.12 3.52,-3.8 v -17.16 q -0.04,-0.28 0.32,-0.32 h 0.76 q 0.28,0 0.32,-0.24 v -4.52 q 0,-0.24 -0.24,-0.24 h -0.76 q -0.32,-0.04 -0.4,-0.32 v -1.24 z" />
    </g>
  </g>
</svg>
